<?xml version="1.0" standalone="no"?>
<!DOCTYPE svg PUBLIC "-//W3C//DTD SVG 20010904//EN"
 "http://www.w3.org/TR/2001/REC-SVG-20010904/DTD/svg10.dtd">
<svg version="1.0" xmlns="http://www.w3.org/2000/svg"
 width="1024.000000pt" height="1024.000000pt" viewBox="0 0 1024.000000 1024.000000"
 preserveAspectRatio="xMidYMid meet">
<metadata>
Created by potrace 1.11, written by Peter Selinger 2001-2013
</metadata>
<g transform="translate(0.000000,1024.000000) scale(0.100000,-0.100000)"
fill="#000000" stroke="none">
<path d="M1786 10229 c-369 -39 -752 -199 -1046 -436 -89 -72 -257 -243 -321
-328 -227 -297 -371 -657 -409 -1025 -13 -130 -13 -6510 0 -6640 40 -384 195
-761 437 -1060 72 -89 243 -257 328 -321 297 -227 657 -371 1025 -409 130 -13
6510 -13 6640 0 384 40 761 195 1060 437 89 72 257 243 321 328 227 297 371
657 409 1025 13 130 13 6510 0 6640 -38 368 -182 728 -409 1025 -64 85 -232
256 -321 328 -299 242 -676 397 -1060 437 -117 12 -6538 11 -6654 -1z m6774
-421 c330 -76 593 -219 815 -444 224 -225 372 -506 437 -827 l23 -112 0 -3305
0 -3305 -22 -110 c-66 -324 -213 -603 -438 -829 -227 -229 -498 -375 -835
-448 l-105 -23 -3310 0 -3310 0 -112 23 c-325 66 -611 218 -838 448 -223 225
-358 478 -437 820 l-23 99 -3 3250 c-2 2294 0 3282 8 3358 13 135 56 304 110
439 199 496 654 870 1178 967 59 11 125 22 147 24 22 2 1516 3 3320 3 l3280
-1 115 -27z"/>
<path d="M3544 8744 c-21 -15 -79 -60 -127 -101 -49 -41 -163 -120 -255 -175
-92 -55 -194 -122 -227 -149 -75 -60 -170 -173 -253 -298 -114 -172 -352 -678
-429 -911 -32 -99 -52 -226 -53 -347 l0 -41 128 -43 c71 -23 154 -59 188 -81
120 -75 141 -79 499 -88 451 -12 493 -23 596 -151 l60 -74 -3 -110 c-4 -94 -8
-119 -31 -169 -15 -33 -46 -79 -68 -103 -86 -93 -160 -311 -163 -478 -1 -78 2
-96 23 -131 26 -46 75 -78 136 -88 60 -11 109 -48 136 -103 21 -42 24 -62 24
-168 0 -66 -4 -192 -9 -280 l-9 -161 31 -64 c69 -145 88 -290 57 -430 -8 -36
-18 -103 -21 -150 l-7 -86 84 -77 84 -77 6 -388 c7 -383 19 -572 59 -907 11
-93 20 -216 20 -273 0 -110 -10 -146 -57 -215 -24 -35 -25 -43 -20 -120 3 -46
15 -112 28 -151 22 -65 27 -70 64 -83 58 -21 130 -12 163 20 37 35 169 298
187 372 10 38 15 109 15 201 0 142 13 233 44 323 31 87 16 271 -35 431 -17 52
-40 138 -50 190 -25 116 -17 208 37 453 66 301 67 476 5 792 -57 286 -62 444
-20 622 11 47 28 140 39 207 17 102 18 130 9 179 -30 149 45 861 110 1048 29
86 69 157 110 198 47 47 118 75 434 172 l232 71 405 -6 c223 -3 433 -10 466
-16 34 -5 105 -31 159 -56 143 -68 184 -68 267 2 40 33 124 47 255 42 134 -4
126 2 199 -143 61 -123 66 -170 28 -287 l-29 -91 -160 -147 c-151 -139 -166
-156 -249 -287 -154 -239 -229 -324 -436 -496 -110 -90 -178 -197 -241 -377
-28 -81 -33 -109 -34 -187 0 -51 5 -96 10 -102 14 -13 215 39 316 82 105 46
178 91 247 152 94 84 298 320 432 500 228 307 285 388 385 550 127 204 223
306 365 385 52 29 122 74 155 99 86 65 252 234 387 392 63 74 150 167 193 205
84 75 154 173 212 292 46 96 57 203 28 279 -21 55 -134 177 -208 226 -86 56
-128 67 -336 87 -278 28 -372 39 -491 57 -129 19 -197 15 -545 -31 -202 -26
-327 -37 -562 -46 -167 -6 -335 -9 -375 -5 -40 3 -406 10 -813 15 -778 10
-856 14 -1023 60 -98 27 -190 76 -213 114 -9 16 -32 70 -49 120 -42 120 -144
332 -208 432 -28 43 -75 102 -104 131 -81 80 -137 92 -204 47z"/>
</g>
</svg>
